PathFileType	4	(X/Y/Z)	E:\3-PhD\Data\MocapData\ElaboratedData\009\pre\dynamicElaborations\RunA3\RunA3.trc
DataRate	CameraRate	NumFrames	NumMarkers	Units	OrigDataRate	DataStartFrame
200	200	4	54	mm	200	570
Frame#	Time	FHD			LBHD			RBHD			C7			T10			CLAV			LSHO			LUUPA			LMUPA			LDUPA			LLEP			LMEP			LRAD			LUL			LRFIN			RSHO			RUPA1			RMUPA			RDUPA			RLEP			RMEP			RRAD			RUL			RUFIN			RASI			USACR			LSACR			RSACR			LTHI1			LTHI2			LTHI3			LTHI4			LTIB1			LTIB2			LTIB3			LTIB4			LLMAL			LHEE			LMT1			LMT2			RTHI			RTHI2			RTHI3			RTHI4			RLFC			RTIB1			RTIB2			RTIB3			RTIB4			RLMAL			RHEE			RMT1			RMT2			RMT5		
		X1	Y1	Z1	X2	Y2	Z2	X3	Y3	Z3	X4	Y4	Z4	X5	Y5	Z5	X6	Y6	Z6	X7	Y7	Z7	X8	Y8	Z8	X9	Y9	Z9	X10	Y10	Z10	X11	Y11	Z11	X12	Y12	Z12	X13	Y13	Z13	X14	Y14	Z14	X15	Y15	Z15	X16	Y16	Z16	X17	Y17	Z17	X18	Y18	Z18	X19	Y19	Z19	X20	Y20	Z20	X21	Y21	Z21	X22	Y22	Z22	X23	Y23	Z23	X24	Y24	Z24	X25	Y25	Z25	X26	Y26	Z26	X27	Y27	Z27	X28	Y28	Z28	X29	Y29	Z29	X30	Y30	Z30	X31	Y31	Z31	X32	Y32	Z32	X33	Y33	Z33	X34	Y34	Z34	X35	Y35	Z35	X36	Y36	Z36	X37	Y37	Z37	X38	Y38	Z38	X39	Y39	Z39	X40	Y40	Z40	X41	Y41	Z41	X42	Y42	Z42	X43	Y43	Z43	X44	Y44	Z44	X45	Y45	Z45	X46	Y46	Z46	X47	Y47	Z47	X48	Y48	Z48	X49	Y49	Z49	X50	Y50	Z50	X51	Y51	Z51	X52	Y52	Z52	X53	Y53	Z53	X54	Y54	Z54	

589	2.940000	-437.062781	1353.261966	671.328709	-552.964032	1371.883212	513.927723	-580.159170	1348.506913	637.817165	-640.101862	1259.163664	567.223459	-881.292087	1000.430838	592.749818	-573.001280	1107.197528	568.309493	-561.820866	1187.140319	438.872622	-537.173427	1035.427378	328.958755	-494.622747	1025.266219	345.748626	-503.516976	976.726082	311.786218	-445.225352	868.640005	303.623543	-466.061628	826.145280	358.803862	-298.234495	988.327578	471.554787	-244.146042	945.145269	443.722840	-256.404090	1047.319699	457.285692	-574.060433	1167.439899	734.796319	-720.348738	1098.110148	834.006975	-738.453089	1055.285880	817.314747	-779.662899	1073.701925	858.077234	-902.772686	1031.843799	888.783573	-939.436597	1060.405031	833.449368	-1017.216878	798.230678	854.633663	-1065.468660	827.676643	898.755348	-1020.320116	735.452386	904.095602	-755.950163	765.879675	662.758241	-928.051333	894.201924	582.658546	-933.709357	871.561344	547.966229	-933.992574	855.998680	604.602167	-708.957536	667.576443	294.285641	-640.294722	621.062645	277.409437	-600.382048	637.418693	299.502932	-637.536976	561.874513	261.133959	-570.786101	297.267068	199.500807	-633.408131	305.232079	138.942139	-604.230337	278.209709	156.989745	-643.257870	201.805575	153.475129	-750.022004	108.483048	78.950963	-842.456289	67.039933	85.621095	-631.445212	52.701227	151.107429	-617.134454	55.991454	105.406304	-703.877864	580.021231	734.260287	-643.774827	575.276701	758.317139	-624.263027	603.643551	765.620948	-587.047115	513.468668	739.801079	-496.943433	468.453540	728.393178	-495.721911	342.626236	566.270316	-598.431308	312.178844	536.394880	-552.578469	297.281916	522.717771	-546.247916	279.180739	469.509140	-642.743736	238.011202	425.018696	-690.529435	254.892617	338.094298	-485.460234	171.548518	389.381966	-505.537678	154.533288	420.526964	-570.488721	129.379992	437.581578	
590	2.945000	-415.522905	1352.555557	680.611818	-529.958407	1371.112241	522.154040	-558.214635	1347.761372	645.727140	-617.056635	1258.447373	574.402713	-859.179677	1000.206315	599.638556	-550.683134	1106.131345	577.611400	-535.049516	1185.879364	449.249484	-504.492359	1035.024385	341.315456	-462.436559	1025.230793	359.593166	-469.811516	976.553885	325.411287	-409.708692	869.104324	319.284805	-430.868736	826.712874	373.992240	-270.159903	994.594114	489.363268	-214.195145	952.774560	463.016386	-229.956011	1054.566944	475.267052	-554.031826	1167.755720	743.536464	-702.620312	1101.940032	841.562096	-720.623270	1058.789021	825.872295	-762.707942	1078.773536	864.939893	-886.568386	1037.501826	894.161202	-921.888303	1066.078281	838.151703	-1001.633537	804.814626	856.955585	-1050.151061	834.152356	900.832040	-1005.514414	741.537016	905.538839	-733.332209	766.079274	668.439836	-906.276425	894.162635	589.765681	-912.203270	871.581252	555.093561	-912.047480	855.939085	611.739447	-692.390319	667.286580	298.205415	-624.968521	619.612339	279.906759	-584.517129	634.809784	301.899530	-623.682414	560.580199	262.843212	-564.207935	293.993274	198.673999	-627.737967	303.625329	139.260356	-598.935867	275.914690	156.822649	-639.708586	200.404360	153.763349	-749.425138	109.977207	80.623137	-842.387277	69.665227	88.180161	-630.931254	52.351930	151.271790	-617.086958	55.858044	105.332923	-680.981047	582.517942	741.123018	-620.804322	579.068943	765.217291	-601.832923	607.907379	772.272276	-562.832075	518.267121	746.931259	-471.348238	474.634099	735.920670	-460.048131	344.250021	576.688316	-560.539433	308.471754	544.501159	-513.598493	295.138649	532.131638	-505.029401	276.635130	479.439358	-597.934186	229.486718	433.643805	-643.933790	242.260821	345.162890	-437.167083	169.428274	404.589993	-457.340149	152.200431	435.296377	-521.529737	124.545771	451.069602	
591	2.950000	-393.993274	1352.545146	690.308759	-507.062329	1370.947599	530.870628	-536.275551	1347.624310	654.136030	-594.045374	1258.232084	582.111710	-836.883292	1000.354113	606.625089	-528.293441	1105.738602	587.470984	-508.707913	1185.407639	460.319749	-472.707646	1035.524855	354.195714	-431.129170	1026.072858	373.810547	-437.119701	977.320114	339.418638	-375.441963	870.546722	334.938709	-396.897593	828.241569	389.338217	-242.945415	1001.184687	506.918724	-185.287303	960.743620	481.943036	-204.344124	1062.035659	492.940981	-534.153715	1168.728477	752.798050	-684.980802	1106.506095	849.466983	-702.915974	1063.040385	834.828553	-745.805394	1084.602541	872.151913	-870.481358	1043.905127	899.823073	-904.418307	1072.378921	843.125602	-985.117019	811.708147	859.148040	-1034.046147	840.689062	902.763783	-989.534704	747.866529	906.729746	-710.817302	766.606801	674.431100	-884.287755	894.539487	596.849465	-890.425556	872.038516	562.163304	-889.965329	856.278227	618.810235	-675.867308	667.078277	302.371230	-609.882805	618.079682	282.628661	-568.847311	632.073439	304.390901	-610.226553	559.217568	264.904735	-557.926819	290.978568	198.238158	-622.279829	302.260439	139.933137	-593.849604	273.902912	156.991905	-636.265776	199.264622	154.376853	-748.753766	111.727185	82.459883	-842.217874	72.661211	90.882304	-630.360002	51.979699	151.501270	-616.992703	55.738848	105.305411	-658.242700	585.154958	748.077071	-597.991703	582.878675	772.131719	-579.491021	612.121402	778.899177	-538.969316	522.944221	754.020996	-446.275660	480.468796	743.325089	-424.745829	345.929721	587.328278	-522.641525	304.884003	553.049421	-474.836875	293.179116	542.105377	-463.948342	274.363520	490.009515	-552.863718	221.371015	442.983434	-596.866043	230.185422	353.147548	-389.195475	167.918780	420.609482	-409.456708	150.435863	450.814544	-472.756218	120.328888	465.327017	
592	2.955000	-372.474382	1353.238589	700.434541	-484.241463	1371.374306	540.069333	-514.339560	1348.117029	663.038422	-571.071327	1258.522640	590.362156	-814.393142	1000.867033	613.730159	-505.823541	1105.990560	597.877518	-482.853559	1185.670388	471.992787	-441.872315	1036.841453	367.489212	-400.736904	1027.720416	388.302949	-405.438755	978.945955	353.694311	-342.392219	872.874700	350.466521	-364.120736	830.619115	404.726838	-216.543837	1008.012692	524.171193	-157.362817	968.954126	500.443500	-179.517650	1069.644347	510.276328	-514.387626	1170.331414	762.581953	-667.396070	1111.727651	857.686863	-685.291240	1067.967685	844.125774	-728.912395	1091.083663	879.673040	-854.455174	1050.943656	905.689665	-886.983001	1079.214523	848.317083	-967.707933	818.838219	861.276435	-1017.190623	847.262751	904.581773	-972.462130	754.405052	907.798675	-688.384637	767.427844	680.709886	-862.065727	895.314391	603.921783	-868.354921	872.919901	569.187316	-867.733465	856.999827	625.824574	-659.401189	666.917647	306.769832	-595.049537	616.452494	285.575911	-553.389272	629.224072	306.947180	-597.160830	557.778870	267.349381	-551.902409	288.269419	198.231266	-616.966255	301.181447	140.967924	-588.906864	272.211536	157.513967	-632.878424	198.425193	155.301361	-747.955630	113.769504	84.414223	-841.904091	76.080753	93.655661	-629.736846	51.591597	151.787758	-616.849606	55.637109	105.328191	-635.652135	587.904096	755.123275	-575.321857	586.666919	779.068764	-557.220417	616.246159	785.517795	-515.445677	527.445391	761.085955	-421.719598	485.883854	750.622055	-389.883849	347.630545	598.211097	-484.796624	301.437317	562.039138	-436.348172	291.422239	552.624504	-423.074139	272.358062	501.241407	-507.664247	213.745759	453.049875	-549.444570	218.780777	362.040585	-341.634947	167.033894	437.347761	-361.999287	149.264614	467.024845	-424.288246	116.753747	480.279324	
